<svg id="svg" xmlns="http://www.w3.org/2000/svg" xmlns:xlink="http://www.w3.org/1999/xlink" width="400" height="400" viewBox="0, 0, 400,400"><g id="svgg"><path id="path0" d="M199.655 43.829 C 197.566 46.137,197.175 72.775,199.200 74.800 C 200.747 76.347,205.253 76.347,206.800 74.800 C 208.968 72.632,208.424 45.693,206.171 43.655 C 203.794 41.504,201.709 41.560,199.655 43.829 M294.437 77.772 C 281.728 88.418,276.995 101.000,285.699 101.000 C 288.757 101.000,303.000 84.539,303.000 81.005 C 303.000 76.824,297.878 74.890,294.437 77.772 M102.655 79.829 C 97.285 85.763,122.135 108.465,127.800 102.800 C 130.761 99.839,129.144 96.633,120.836 89.000 C 108.262 77.447,105.892 76.252,102.655 79.829 M202.500 93.616 C 187.251 95.157,160.139 105.444,147.440 114.506 C 107.237 143.194,109.100 204.813,151.637 253.327 C 155.412 257.633,159.749 262.778,161.276 264.761 C 169.017 274.820,168.814 293.382,160.854 303.221 C 158.623 305.979,158.559 306.569,159.197 318.500 C 159.782 329.439,167.145 337.895,177.427 339.437 C 181.741 340.084,182.116 340.398,184.118 345.053 C 191.784 362.872,211.710 361.932,221.348 343.295 C 222.629 340.817,223.856 339.949,226.752 339.469 C 239.972 337.280,246.124 328.044,241.023 318.046 L 239.047 314.172 242.717 312.267 C 251.586 307.664,252.313 300.294,244.443 294.747 L 240.000 291.615 240.000 284.297 C 240.000 272.269,247.459 259.250,263.384 243.484 C 290.684 216.455,293.953 191.978,277.592 137.109 C 273.105 122.061,271.176 118.134,265.602 112.698 C 252.075 99.506,225.057 91.335,202.500 93.616 M228.883 106.024 C 252.931 111.789,260.943 119.042,267.521 141.000 C 282.982 192.615,280.156 212.217,253.471 238.434 C 239.042 252.610,230.338 267.579,229.296 280.009 C 228.652 287.689,228.072 288.644,225.032 287.017 C 220.354 284.513,217.180 218.754,221.542 214.687 C 222.242 214.034,225.224 212.018,228.168 210.206 C 240.088 202.871,242.991 187.219,233.857 179.533 C 224.905 172.001,215.881 181.778,211.485 203.772 C 210.270 209.855,196.039 213.581,193.880 208.381 C 188.151 194.581,185.151 191.014,179.266 191.004 C 166.984 190.983,167.144 212.373,179.476 218.997 C 185.791 222.389,185.927 222.973,186.249 248.000 C 186.662 280.093,185.314 288.000,179.429 288.000 C 177.104 288.000,177.000 287.719,177.000 281.443 C 177.000 268.328,174.834 263.619,162.217 249.307 C 128.187 210.704,119.283 166.346,139.723 137.236 C 155.895 114.203,199.429 98.963,228.883 106.024 M330.000 153.320 C 313.837 159.989,311.692 161.687,313.994 165.988 C 315.934 169.613,319.058 169.347,330.746 164.560 C 336.870 162.052,342.533 160.000,343.333 160.000 C 344.132 160.000,345.108 159.213,345.502 158.250 C 346.706 155.311,346.766 150.001,345.596 149.986 C 344.993 149.979,343.600 149.751,342.500 149.480 C 341.400 149.209,335.775 150.937,330.000 153.320 M74.000 169.132 C 72.625 169.685,67.698 171.243,63.051 172.594 C 51.915 175.832,48.135 179.735,52.200 183.800 C 54.562 186.162,73.850 181.949,80.437 177.633 C 87.070 173.287,81.607 166.073,74.000 169.132 M228.238 194.534 C 227.653 197.596,225.444 199.600,224.724 197.723 C 223.944 195.691,226.915 189.244,227.898 190.834 C 228.338 191.547,228.491 193.211,228.238 194.534 M209.194 242.706 C 209.575 254.907,210.329 268.851,210.868 273.694 C 212.030 284.128,212.318 283.715,203.565 284.153 L 196.631 284.500 196.565 253.371 L 196.500 222.242 201.000 221.249 C 208.989 219.485,208.421 217.998,209.194 242.706 M294.408 258.500 C 290.945 263.785,300.672 268.545,323.048 272.517 C 330.452 273.831,334.014 265.888,327.263 263.121 C 323.284 261.489,300.949 256.000,298.292 256.000 C 297.000 256.000,295.350 257.062,294.408 258.500 M114.093 266.804 C 103.216 277.285,101.690 282.181,109.107 282.802 C 116.162 283.392,132.427 265.099,129.296 260.095 C 126.846 256.180,123.660 257.586,114.093 266.804 M219.739 297.059 C 224.007 298.191,228.625 299.499,230.000 299.965 C 231.375 300.431,233.336 301.084,234.358 301.416 C 236.524 302.120,234.718 305.900,230.625 309.228 C 227.854 311.481,174.652 311.928,171.637 309.724 C 168.401 307.358,174.684 300.731,184.000 296.684 C 189.582 294.259,209.990 294.473,219.739 297.059 M229.686 321.174 C 232.639 323.949,232.605 325.374,229.535 327.385 C 226.572 329.326,180.608 329.805,175.287 327.950 C 171.307 326.563,169.549 322.879,171.796 320.632 C 174.696 317.732,226.538 318.217,229.686 321.174 M209.425 340.879 C 210.463 342.557,204.850 347.000,201.692 347.000 C 198.202 347.000,195.000 344.534,195.000 341.845 C 195.000 339.846,208.239 338.959,209.425 340.879 " stroke="none" fill="#000000" fill-rule="evenodd"></path></g></svg>