<svg id="svg" xmlns="http://www.w3.org/2000/svg" xmlns:xlink="http://www.w3.org/1999/xlink" width="400" height="400" viewBox="0, 0, 400,400"><g id="svgg"><path id="path0" d="M179.121 66.127 C 156.093 69.952,142.240 92.883,162.861 93.044 C 169.767 93.098,173.871 94.507,183.120 100.002 C 199.342 109.639,202.180 114.407,202.805 133.071 L 203.225 145.642 197.049 153.854 C 192.503 159.900,187.656 164.616,178.686 171.724 C 171.984 177.036,156.375 191.310,144.000 203.445 C 122.577 224.453,109.521 236.059,86.000 255.003 C 46.713 286.645,44.475 296.444,70.662 322.159 C 89.215 340.378,84.645 342.711,143.500 284.975 C 157.250 271.486,172.550 257.097,177.500 253.000 C 186.699 245.387,211.706 220.785,231.629 199.750 C 239.532 191.406,243.422 188.000,245.049 188.000 C 246.309 188.000,250.369 186.604,254.071 184.898 C 266.351 179.237,272.764 188.264,269.015 205.931 C 267.416 213.466,268.085 216.023,272.741 220.167 C 274.801 222.000,280.204 227.213,284.748 231.750 C 298.015 245.000,302.502 243.535,327.602 217.760 C 354.427 190.214,354.496 189.761,334.771 170.735 C 319.814 156.309,317.694 154.986,312.528 156.854 C 300.506 161.201,296.622 155.620,297.940 135.891 C 299.002 119.988,270.597 90.983,237.500 74.176 C 223.203 66.915,196.522 63.237,179.121 66.127 M205.000 77.994 C 225.908 80.399,242.180 88.416,264.762 107.437 C 281.662 121.673,285.294 127.746,285.432 142.000 C 285.630 162.433,292.848 171.008,308.771 169.730 L 315.370 169.201 325.673 178.850 C 331.339 184.158,335.981 188.888,335.988 189.361 C 336.029 192.253,304.219 225.161,300.128 226.460 C 298.193 227.073,296.566 225.963,289.703 219.343 L 281.571 211.500 281.488 199.000 C 281.333 175.441,268.621 164.080,251.688 172.364 C 244.406 175.927,243.946 175.823,238.429 169.366 C 235.782 166.267,230.255 160.864,226.147 157.359 C 215.333 148.131,215.609 148.755,214.900 132.000 C 213.843 107.024,208.250 98.929,183.463 86.504 C 173.615 81.568,172.983 81.079,175.030 79.984 C 180.150 77.244,191.770 76.472,205.000 77.994 M216.271 164.899 C 222.354 169.684,225.211 172.539,229.747 178.372 L 231.980 181.245 219.253 194.872 C 195.573 220.227,189.534 226.215,174.500 239.246 C 166.250 246.396,148.912 262.653,135.970 275.373 C 109.595 301.297,88.580 321.000,87.305 321.000 C 86.303 321.000,70.272 304.780,67.157 300.615 C 61.756 293.392,69.124 284.226,101.000 258.516 C 118.486 244.412,131.109 233.018,152.500 212.032 C 164.600 200.161,179.225 186.820,185.000 182.384 C 194.941 174.748,207.000 162.995,207.000 160.943 C 207.000 158.825,210.387 160.271,216.271 164.899 M318.826 184.656 C 317.906 184.910,315.345 187.453,313.135 190.309 C 310.925 193.164,307.066 197.506,304.559 199.958 C 296.981 207.369,298.709 215.215,307.554 213.556 C 312.520 212.624,328.062 194.750,327.968 190.079 C 327.893 186.339,323.078 183.483,318.826 184.656 " stroke="none" fill="#000000" fill-rule="evenodd"></path></g></svg>