<svg id="svg" xmlns="http://www.w3.org/2000/svg" xmlns:xlink="http://www.w3.org/1999/xlink" width="400" height="400" viewBox="0, 0, 400,400"><g id="svgg"><path id="path0" d="M289.500 29.098 C 273.244 29.799,211.892 30.129,161.000 29.788 C 126.938 29.559,107.890 30.375,104.500 32.208 C 96.462 36.554,92.695 44.169,91.741 58.000 L 91.500 61.500 80.500 62.025 C 64.072 62.809,58.268 66.562,53.473 79.500 C 53.065 80.600,52.371 89.825,51.931 100.000 C 51.490 110.175,50.806 125.594,50.409 134.264 C 49.398 156.385,51.719 162.632,62.893 167.870 C 69.118 170.787,90.664 171.458,103.276 169.126 C 111.330 167.637,182.784 164.667,192.785 165.405 C 209.852 166.665,213.958 173.209,213.992 199.205 L 214.000 204.909 210.250 205.512 C 202.965 206.684,201.805 207.105,199.496 209.413 C 194.545 214.365,193.896 225.057,196.672 256.000 C 197.872 269.372,198.362 286.279,198.440 317.000 C 198.570 368.292,198.530 368.135,212.182 371.037 C 225.889 373.950,241.349 371.094,244.462 365.073 C 253.240 348.100,250.394 249.430,240.179 216.555 C 238.576 211.396,232.791 204.000,230.359 204.000 C 228.170 204.000,227.343 200.446,226.635 188.000 C 225.387 166.051,219.897 157.459,204.500 153.356 C 195.670 151.003,139.360 152.096,105.500 155.278 C 81.260 157.556,69.289 157.039,66.319 153.585 L 63.812 150.669 64.440 133.085 C 66.254 82.351,66.203 82.826,70.323 78.250 C 72.147 76.224,73.272 76.000,81.629 76.000 L 90.909 76.000 91.402 79.250 C 91.673 81.037,92.138 86.339,92.436 91.032 C 94.104 117.286,98.109 119.985,137.000 121.061 C 152.125 121.480,170.350 122.313,177.500 122.912 C 214.705 126.031,284.648 126.089,312.000 123.024 C 340.102 119.874,350.237 108.370,348.579 81.500 C 348.206 75.450,347.496 63.177,347.002 54.227 C 345.477 26.598,345.651 26.674,289.500 29.098 M180.500 43.485 C 201.433 44.959,227.467 44.730,309.587 42.347 C 335.917 41.583,332.859 38.814,334.058 64.500 C 334.546 74.950,335.238 84.524,335.596 85.775 C 337.197 91.376,331.798 102.654,326.000 105.817 C 315.336 111.635,229.216 114.062,182.000 109.874 C 175.675 109.314,157.900 108.472,142.500 108.005 C 111.352 107.059,110.535 106.936,108.429 102.862 C 104.760 95.767,103.969 54.828,107.374 48.243 C 109.452 44.225,110.257 44.018,124.332 43.883 C 134.306 43.786,150.811 42.945,158.000 42.167 C 158.825 42.078,168.950 42.671,180.500 43.485 M226.330 219.250 C 234.390 232.429,239.506 338.590,232.908 355.750 C 231.878 358.429,215.279 359.247,213.184 356.722 C 212.476 355.869,212.142 342.994,212.180 317.972 C 212.220 292.188,211.735 274.106,210.627 260.000 C 207.381 218.671,207.227 219.988,215.500 218.404 C 224.240 216.732,224.818 216.777,226.330 219.250 " stroke="none" fill="#000000" fill-rule="evenodd"></path></g></svg>