<svg id="svg" xmlns="http://www.w3.org/2000/svg" xmlns:xlink="http://www.w3.org/1999/xlink" width="400" height="400" viewBox="0, 0, 400,400"><g id="svgg"><path id="path0" d="M329.654 59.750 C 320.849 65.702,309.407 76.581,299.423 88.491 C 289.861 99.898,279.898 109.923,264.573 123.558 C 242.518 143.180,197.725 189.166,171.549 219.060 C 143.030 251.629,136.663 258.257,116.000 276.882 C 105.275 286.549,90.842 299.903,83.926 306.556 C 77.011 313.209,67.561 321.343,62.926 324.631 C 53.351 331.425,51.191 336.151,56.193 339.359 C 62.304 343.277,120.240 344.808,157.000 342.022 C 182.374 340.099,229.311 340.094,252.500 342.012 C 271.167 343.555,308.312 343.680,328.396 342.267 C 343.710 341.189,343.248 342.002,342.202 318.000 C 341.356 298.553,342.032 275.931,344.085 255.000 C 344.818 247.523,345.407 222.810,345.550 193.500 C 345.681 166.550,346.279 139.100,346.878 132.500 C 348.387 115.886,348.252 80.465,346.639 69.735 C 344.492 55.458,339.952 52.789,329.654 59.750 M334.418 85.750 C 334.768 91.662,334.534 106.400,333.898 118.500 C 333.263 130.600,332.390 164.575,331.958 194.000 C 331.527 223.425,330.644 252.450,329.997 258.500 C 329.349 264.550,328.673 282.775,328.494 299.000 L 328.169 328.500 317.335 329.123 C 300.968 330.064,274.073 330.014,259.500 329.016 C 206.136 325.361,207.927 325.354,141.500 329.488 C 108.880 331.517,84.796 331.158,82.284 328.605 C 81.452 327.759,100.063 309.261,116.204 294.891 L 125.874 286.282 130.981 286.772 C 137.368 287.386,139.272 285.556,138.549 279.500 C 137.850 273.650,159.972 250.119,164.311 252.096 C 170.371 254.857,174.995 250.052,172.925 243.145 L 171.744 239.201 181.053 228.601 C 190.941 217.340,191.198 217.179,195.636 219.494 C 203.277 223.479,210.246 215.153,204.000 209.500 C 200.884 206.680,201.262 206.050,213.868 193.094 L 225.736 180.896 230.893 181.580 C 238.834 182.634,242.533 177.795,238.496 171.635 C 237.050 169.428,237.283 169.028,244.604 161.148 C 253.916 151.124,254.835 150.572,258.873 152.586 C 265.137 155.711,270.586 150.540,267.601 144.304 L 265.781 140.500 273.640 133.504 C 288.481 120.293,301.227 107.485,310.223 96.743 C 319.232 85.986,330.491 75.079,332.641 75.027 C 333.388 75.009,334.001 78.711,334.418 85.750 M294.500 154.693 C 288.327 158.012,277.045 168.208,262.500 183.613 C 254.250 192.351,246.743 200.067,245.817 200.760 C 244.891 201.453,238.083 208.878,230.687 217.260 C 223.292 225.642,213.474 236.102,208.870 240.504 C 190.546 258.026,171.191 275.964,165.500 280.699 C 152.101 291.848,150.275 294.719,153.474 299.601 C 155.014 301.951,155.597 302.133,159.835 301.585 C 169.912 300.284,217.486 299.364,235.000 300.133 C 245.175 300.579,263.182 301.249,275.016 301.621 L 296.531 302.298 299.874 298.490 C 303.608 294.237,303.666 292.855,300.834 275.500 C 299.172 265.312,299.179 253.059,300.855 236.000 C 307.804 165.291,306.472 148.256,294.500 154.693 M290.609 190.250 C 290.236 198.637,289.550 209.775,289.086 215.000 C 286.039 249.257,285.605 260.079,286.832 271.258 C 287.511 277.441,288.164 283.625,288.283 285.000 L 288.500 287.500 272.500 287.444 C 242.489 287.339,182.000 285.680,182.000 284.963 C 182.000 284.569,187.738 278.917,194.750 272.401 C 216.842 251.876,226.918 241.848,237.357 230.000 C 242.930 223.675,251.092 214.853,255.495 210.396 C 259.898 205.939,269.274 196.152,276.331 188.646 C 283.388 181.141,289.640 175.000,290.225 175.000 C 290.958 175.000,291.077 179.726,290.609 190.250 " stroke="none" fill="#000000" fill-rule="evenodd"></path></g></svg>