<svg id="svg" xmlns="http://www.w3.org/2000/svg" xmlns:xlink="http://www.w3.org/1999/xlink" width="400" height="400" viewBox="0, 0, 400,400"><g id="svgg"><path id="path0" d="M125.175 19.687 C 98.431 29.144,120.381 62.000,153.443 62.000 C 159.400 62.000,159.912 63.044,160.646 76.694 L 161.290 88.681 156.709 90.899 C 151.920 93.217,147.687 97.437,142.305 105.260 C 136.399 113.842,128.524 116.068,112.585 113.660 C 105.036 112.520,102.427 111.725,101.650 110.331 C 91.513 92.148,65.752 86.288,55.250 99.777 C 53.741 101.715,53.610 116.462,54.985 129.500 C 55.670 135.993,55.507 145.186,54.400 162.500 C 51.774 203.584,52.281 207.533,60.690 211.523 C 70.390 216.126,88.533 205.557,97.217 190.244 C 100.294 184.817,100.833 184.512,109.000 183.567 C 134.631 180.601,138.231 181.482,146.882 192.842 C 166.349 218.405,184.990 220.133,208.000 198.507 C 235.127 173.013,267.987 191.499,267.999 232.261 C 268.003 248.223,279.735 254.183,311.500 254.362 C 340.754 254.526,351.513 245.856,347.078 225.693 C 346.570 223.387,345.607 218.125,344.937 214.000 C 339.397 179.911,332.481 160.711,321.565 149.123 C 314.084 141.180,304.793 135.232,288.000 127.631 C 279.194 123.645,262.162 118.937,251.279 117.479 C 233.473 115.094,233.030 114.891,223.913 104.904 C 219.525 100.098,213.745 94.496,211.070 92.455 C 205.663 88.332,204.000 82.456,204.000 67.478 C 204.000 59.784,202.626 60.365,222.772 59.548 C 240.431 58.832,246.176 57.662,250.445 53.914 C 261.431 44.269,253.511 26.018,235.664 19.850 C 228.396 17.338,132.218 17.197,125.175 19.687 M202.000 29.866 C 227.934 31.045,235.636 32.787,239.535 38.353 C 244.792 45.859,238.188 46.559,154.500 47.368 C 134.354 47.562,119.904 36.772,133.508 31.693 C 143.928 27.803,151.925 27.589,202.000 29.866 M188.305 61.250 C 189.697 62.281,190.037 64.598,190.246 74.500 L 190.500 86.500 183.373 86.791 C 177.468 87.033,176.136 86.797,175.606 85.415 C 174.659 82.947,173.609 63.461,174.323 61.601 C 175.089 59.605,185.725 59.338,188.305 61.250 M202.066 103.438 C 204.028 104.729,209.203 109.702,213.566 114.489 C 225.209 127.263,225.496 127.392,251.500 131.531 C 281.944 136.377,310.207 152.010,318.335 168.500 C 324.527 181.062,335.752 229.993,333.680 235.391 C 331.021 242.322,282.006 242.236,281.999 235.301 C 281.974 211.322,276.009 195.825,262.521 184.700 C 241.693 167.520,221.303 168.077,201.000 186.382 C 182.509 203.053,172.353 203.332,160.265 187.500 C 146.089 168.932,136.581 165.546,109.597 169.456 L 103.694 170.311 104.304 163.906 C 104.640 160.383,105.456 150.631,106.118 142.235 L 107.320 126.969 110.910 127.711 C 112.885 128.119,118.775 128.442,124.000 128.429 C 139.105 128.392,145.430 124.777,156.246 110.000 C 163.253 100.427,191.372 96.400,202.066 103.438 M78.800 107.418 C 91.864 114.276,94.252 124.775,90.645 159.500 C 88.569 179.496,84.705 187.978,74.469 195.021 C 66.348 200.609,64.891 198.157,67.040 182.513 C 67.932 176.015,68.451 161.795,68.518 142.000 C 68.644 104.849,69.355 102.459,78.800 107.418 M166.517 112.187 C 152.051 119.812,145.537 147.000,158.177 147.000 C 162.041 147.000,163.639 145.180,164.931 139.308 C 166.877 130.468,170.907 124.018,174.500 123.996 C 176.929 123.981,181.250 119.286,181.250 116.661 C 181.250 110.217,174.275 108.099,166.517 112.187 M300.000 215.000 C 299.175 215.533,297.324 215.976,295.886 215.985 C 289.855 216.020,286.110 223.595,290.039 227.811 C 295.028 233.167,314.000 227.047,314.000 220.082 C 314.000 214.945,305.090 211.710,300.000 215.000 M297.903 284.186 C 291.719 290.892,275.579 316.043,272.156 324.308 C 268.530 333.066,268.233 356.159,271.665 362.500 C 277.774 373.785,286.882 378.507,302.500 378.484 C 333.518 378.441,354.220 352.031,344.819 324.500 C 342.076 316.470,338.633 311.615,327.250 299.726 C 320.512 292.690,315.000 286.549,315.000 286.081 C 315.000 281.403,301.817 279.941,297.903 284.186 M317.107 309.513 C 332.717 325.304,336.212 336.101,329.988 349.313 C 321.823 366.644,291.564 371.140,284.381 356.088 C 282.035 351.173,282.918 334.378,285.875 327.661 C 288.682 321.286,303.939 299.000,305.498 299.000 C 306.167 299.000,311.391 303.731,317.107 309.513 " stroke="none" fill="#000000" fill-rule="evenodd"></path></g></svg>