<svg id="svg" xmlns="http://www.w3.org/2000/svg" xmlns:xlink="http://www.w3.org/1999/xlink" width="400" height="400" viewBox="0, 0, 400,400"><g id="svgg"><path id="path0" d="M275.500 51.651 C 264.232 54.046,246.052 63.087,234.351 72.115 C 228.132 76.913,227.397 76.802,220.262 69.997 C 212.306 62.407,209.016 63.020,201.550 73.483 C 190.349 89.179,187.142 99.538,186.065 123.500 C 184.224 164.446,157.396 200.279,98.762 240.103 C 71.956 258.310,61.022 269.818,55.154 286.000 C 46.676 309.382,53.647 336.657,70.269 345.137 C 90.502 355.459,104.078 350.365,126.600 324.000 C 128.714 321.525,135.211 314.325,141.036 308.000 C 151.814 296.298,181.321 262.286,197.346 243.094 C 231.054 202.725,244.660 192.885,269.368 191.010 C 327.628 186.588,357.412 155.135,345.134 111.000 C 336.719 80.751,333.095 80.698,305.458 110.419 C 294.735 121.949,294.084 122.313,291.441 118.250 C 290.457 116.737,286.968 112.697,283.687 109.270 L 277.722 103.041 282.611 97.307 C 285.300 94.153,292.777 85.542,299.226 78.170 C 313.934 61.361,315.144 57.107,306.686 51.950 C 302.699 49.519,286.272 49.361,275.500 51.651 M291.000 64.915 C 291.000 66.796,265.757 95.023,263.589 95.567 C 260.659 96.302,241.500 88.016,241.500 86.014 C 241.500 83.399,259.171 72.371,270.500 67.915 C 278.004 64.963,291.000 63.062,291.000 64.915 M222.500 90.538 C 232.408 98.625,238.325 102.008,252.441 107.661 C 266.424 113.260,272.950 117.572,278.277 124.732 C 291.447 142.434,296.317 142.667,310.322 126.267 C 327.260 106.432,328.990 105.522,331.539 115.101 C 340.949 150.455,312.817 176.821,265.500 176.994 C 242.784 177.078,220.959 192.530,188.512 231.504 C 183.019 238.102,175.362 247.100,171.497 251.500 C 167.632 255.900,159.705 265.129,153.881 272.010 C 148.058 278.890,139.285 288.790,134.385 294.010 C 129.485 299.229,121.068 308.548,115.679 314.717 C 98.331 334.579,93.184 337.649,82.462 334.532 C 62.648 328.772,59.480 299.624,76.264 277.500 C 81.736 270.288,89.917 263.400,105.707 252.712 C 168.183 210.423,200.000 167.673,200.000 126.016 C 200.000 110.671,202.818 98.105,208.394 88.591 C 211.902 82.605,212.957 82.750,222.500 90.538 M225.000 126.000 C 219.824 131.176,223.415 136.179,237.500 143.423 C 242.450 145.968,248.483 149.164,250.907 150.525 C 256.241 153.520,260.320 153.680,263.000 151.000 C 268.725 145.275,263.534 140.269,239.272 128.120 C 229.984 123.469,227.848 123.152,225.000 126.000 M90.033 287.626 C 83.062 293.492,80.862 304.424,85.126 312.011 C 91.013 322.486,106.471 318.226,109.963 305.166 C 113.665 291.325,99.965 279.268,90.033 287.626 " stroke="none" fill="#000000" fill-rule="evenodd"></path></g></svg>